<svg xmlns="http://www.w3.org/2000/svg" viewBox="0 0 36.06 29.82"><g id="Layer_2" data-name="Layer 2"><g id="Layer_1-2" data-name="Layer 1"><path d="M18,29.82H4.12a3.9,3.9,0,0,1-3.9-2.66A4.55,4.55,0,0,1,0,25.79Q0,14.92,0,4A3.88,3.88,0,0,1,4,0C7.5,0,11,0,14.46,0A3.7,3.7,0,0,1,18,2.26a1.36,1.36,0,0,0,1.5.91c4.18,0,8.36,0,12.53,0A3.91,3.91,0,0,1,36,6.43a3.67,3.67,0,0,1,.05.66c0,6.26,0,12.52,0,18.78A3.84,3.84,0,0,1,33,29.72a5.06,5.06,0,0,1-1.1.1Zm0-1.58h13.9a2.35,2.35,0,0,0,2.57-2.58V10.44a2.37,2.37,0,0,0-2.58-2.58c-4,0-8.06,0-12.09,0a1,1,0,0,1-1-.64C18.1,5.81,17.39,4.42,16.7,3a2.39,2.39,0,0,0-2.29-1.42H4A2.34,2.34,0,0,0,1.56,4.08q0,10.83,0,21.65a3.32,3.32,0,0,0,0,.55,2.33,2.33,0,0,0,2.47,2ZM34.49,7.07a2.87,2.87,0,0,0,0-.35,2.35,2.35,0,0,0-2.47-2H19.69l-.38,0c.22.43.43.81.6,1.21a.5.5,0,0,0,.55.35H31.19A4.93,4.93,0,0,1,34.49,7.07Z"/></g></g></svg>