<svg viewBox="0 0 24 24" fill="none" xmlns="http://www.w3.org/2000/svg">
<path d="M24 7.99424C24.0048 9.59379 23.3851 11.096 22.2587 12.2283L12.8583 21.6407C12.379 22.1209 11.6044 22.1192 11.1267 21.639L1.83612 12.2997C0.645142 11.1025 -0.0504031 9.47374 0.00285216 7.78173C0.051266 6.25518 0.66128 4.83084 1.74091 3.74879C2.86088 2.62295 4.35525 2 5.94161 2C7.52797 2 9.03203 2.62295 10.1585 3.75528L11.4576 5.0612C11.761 5.36618 12.2499 5.36618 12.5549 5.0612L13.8411 3.76664C14.9676 2.6343 16.4668 2.01136 18.0531 2.01136C19.6395 2.01136 21.1323 2.6343 22.2587 3.76015C23.3851 4.89249 24 6.3947 24 7.99424Z" fill="currentColor"/>
</svg>
