<svg viewBox="0 0 24 24" fill="none" xmlns="http://www.w3.org/2000/svg">
<path d="M12.1079 8.90171L14.2345 11.0274L13.7124 11.55L11.5857 9.4243L12.1079 8.90171ZM16.0925 6.5623C15.638 6.10736 14.9027 6.10736 14.4482 6.5623L12.6814 8.32862L14.8081 10.4548L16.5749 8.68796C17.0298 8.23303 17.0298 7.49718 16.5749 7.04371L16.0925 6.5623ZM0.341204 20.6684C-0.113735 21.1223 -0.113735 21.8596 0.341204 22.3126L0.821636 22.793C1.27608 23.248 2.01242 23.248 2.46589 22.793L13.082 12.177L10.9558 10.0498L0.341204 20.6684ZM20.937 6.37062L20.5433 7.40649L19.508 7.79966L20.5433 8.19381L20.937 9.22918L21.3307 8.19381L22.366 7.79966L21.3307 7.40649L20.937 6.37062ZM17.6279 1.88006L16.9146 0L16.2023 1.88006L14.3218 2.59335L16.2023 3.30664L16.9146 5.18719L17.6279 3.30664L19.508 2.59335L17.6279 1.88006ZM22.8886 2.92818L22.4685 1.81682L22.0484 2.92818L20.9375 3.34831L22.0484 3.76992L22.4685 4.8803L22.8886 3.76992L24 3.34831L22.8886 2.92818Z" fill="currentColor"/>
</svg>
