<svg viewBox="0 0 24 24" fill="none" xmlns="http://www.w3.org/2000/svg">
<path fill-rule="evenodd" clip-rule="evenodd" d="M19.186 2.08996C19.707 2.33996 20.322 2.70196 20.811 3.19096C21.301 3.68096 21.663 4.29496 21.911 4.81596C22.224 5.46996 22.021 6.22396 21.51 6.73596L14.296 13.949C13.986 14.259 13.608 14.49 13.191 14.624L8.969 15.977C8.83768 16.0191 8.6973 16.0242 8.56327 15.9917C8.42924 15.9592 8.30676 15.8904 8.2093 15.7928C8.11184 15.6953 8.04316 15.5727 8.01082 15.4387C7.97849 15.3046 7.98374 15.1642 8.026 15.033L9.379 10.812C9.51255 10.3952 9.74362 10.0164 10.053 9.70696L17.267 2.49296C17.779 1.98096 18.533 1.77896 19.187 2.09096L19.186 2.08996ZM19.397 4.60596C19.15 4.37261 18.8712 4.17532 18.569 4.01996L11.575 11.014C11.5039 11.0849 11.4439 11.1662 11.397 11.255L9.9 14.102L12.746 12.606C12.836 12.559 12.917 12.499 12.988 12.428L19.982 5.43396C19.8266 5.13175 19.6303 4.853 19.397 4.60596ZM4.999 5.49996C4.99878 5.37222 5.04746 5.24925 5.13505 5.15627C5.22263 5.0633 5.34248 5.00736 5.47 4.99996L11 5.00496C11.2652 5.00496 11.5196 4.8996 11.7071 4.71206C11.8946 4.52453 12 4.27017 12 4.00496C12 3.73974 11.8946 3.48539 11.7071 3.29785C11.5196 3.11031 11.2652 3.00496 11 3.00496L5.5 2.99996C4.83696 2.99996 4.20107 3.26335 3.73223 3.73219C3.26339 4.20103 3 4.83692 3 5.49996V18.077C3 18.837 3.082 19.262 3.319 19.704C3.543 20.123 3.877 20.458 4.296 20.682C4.738 20.918 5.162 21 5.923 21H18.077C18.837 21 19.262 20.918 19.704 20.682C20.124 20.458 20.458 20.123 20.682 19.704C20.918 19.262 21 18.838 21 18.077V13C21 12.7347 20.8946 12.4804 20.7071 12.2928C20.5196 12.1053 20.2652 12 20 12C19.7348 12 19.4804 12.1053 19.2929 12.2928C19.1054 12.4804 19 12.7347 19 13V18.077C19 18.536 18.979 18.648 18.918 18.761C18.8833 18.8284 18.8284 18.8832 18.761 18.918C18.648 18.978 18.536 19 18.077 19H5.923C5.464 19 5.353 18.978 5.239 18.918C5.17155 18.8833 5.11665 18.8284 5.082 18.761C5.022 18.648 5 18.536 5 18.077L4.999 5.49996Z" fill="currentColor"/>
</svg>
