<svg viewBox="0 0 128 25" fill="none" xmlns="http://www.w3.org/2000/svg">
<path fill-rule="evenodd" clip-rule="evenodd" d="M89.6114 4.96508C87.6738 4.96508 86.2206 5.69168 85.494 6.90268L85.1307 7.62928V5.32839H81.9821V19.3759H85.3729V11.0201C85.3729 9.08247 86.4628 7.87148 88.4004 7.87148C90.2169 7.87148 91.1857 8.96137 91.1857 10.899V19.3759H94.5765V10.2935C94.4554 7.02378 92.6389 4.96508 89.6114 4.96508ZM73.263 4.96508C69.2667 4.96508 66.8447 7.50818 66.8447 11.5045V13.4421C66.8447 17.3172 69.3878 19.6181 73.3841 19.6181C76.0483 19.6181 77.9858 18.6493 79.0757 16.5907L77.0171 15.3797C76.1694 16.5907 74.7162 17.3172 73.3841 17.3172C71.3254 17.3172 70.1144 16.1063 70.1144 13.9265V13.321H79.5601V11.0201C79.439 7.38708 77.0171 4.96508 73.263 4.96508ZM76.4116 11.2623H70.1144V10.899C70.1144 8.59807 71.2043 7.26598 73.263 7.26598C75.2006 7.26598 76.4116 8.47697 76.4116 10.6568V11.2623ZM128 3.02749V0.363298H116.374V3.02749H120.492V16.7118H116.374V19.3759H128V16.7118H123.883V3.02749H128ZM39.4762 0C34.2689 0 30.9992 3.26969 30.9992 8.47698V11.2623C30.9992 16.4696 34.2689 19.7392 39.4762 19.7392C44.6834 19.7392 47.9531 16.4696 47.9531 11.2623V8.47698C47.9531 3.26969 44.6834 0 39.4762 0ZM44.4412 11.5045C44.4412 15.0164 42.6248 16.954 39.4762 16.954C36.3276 16.954 34.5111 15.0164 34.5111 11.5045V8.23478C34.5111 4.72289 36.3276 2.78529 39.4762 2.78529C42.6248 2.78529 44.4412 4.72289 44.4412 8.23478V11.5045ZM58.6099 5.08619C56.7934 5.08619 55.3402 5.81278 54.4925 7.02378L54.1292 7.50818V5.32839H50.9806V24.2199H54.3714V17.4384L54.7347 17.9227C55.4613 19.0126 57.0356 19.7392 58.731 19.7392C61.6374 19.7392 64.5438 17.8016 64.5438 13.5632V11.1412C64.4227 8.11368 62.6062 4.96509 58.6099 5.08619ZM61.0319 13.4421C61.0319 15.743 59.6998 17.075 57.6411 17.075C55.7035 17.075 54.2503 15.6219 54.2503 13.4421V11.3834C54.2503 9.20358 55.5824 7.75038 57.6411 7.75038C59.6998 7.75038 61.0319 9.20358 61.0319 11.3834V13.4421ZM103.78 0.363298L96.9985 19.3759H100.389L101.721 15.2586H109.593L110.925 19.2548H114.316L107.534 0.2422L103.78 0.363298ZM102.569 12.5944L105.597 3.02749L108.624 12.5944H102.569ZM22.28 9.93017C22.8855 8.23478 22.6433 6.41828 21.7956 4.96508C20.4635 2.66419 17.7993 1.4532 15.2562 2.0587C13.803 0.4844 11.6232 -0.242201 9.44344 0.121098C7.26365 0.605496 5.56825 2.17979 4.84166 4.23849C3.14626 4.60179 1.69307 5.69169 0.845369 7.14488C-0.486728 9.44578 -0.244528 12.3522 1.57197 14.2898C0.966469 15.9852 1.20867 17.8017 2.05637 19.2548C3.38846 21.5557 6.05265 22.7667 8.59575 22.1612C9.80674 23.4933 11.381 24.2199 13.1975 24.2199C15.8617 24.2199 18.1626 22.5245 19.0103 19.9814C20.7057 19.6181 22.1589 18.5282 23.0066 17.075C24.3387 14.7742 24.0965 11.8678 22.28 9.93017ZM13.1975 22.6456C12.1076 22.6456 11.1388 22.2823 10.2911 21.5557L10.4122 21.4346L15.2562 18.6493C15.4984 18.5282 15.6195 18.286 15.6195 17.9227V11.1412L17.6782 12.3522V18.0438C17.6782 20.5869 15.7406 22.6456 13.1975 22.6456ZM3.38846 18.4071C2.90406 17.4384 2.66186 16.4696 2.90406 15.3797L3.02516 15.5008L7.86915 18.286C8.11135 18.4071 8.35355 18.4071 8.71685 18.286L14.6507 14.8953V17.1962C14.6507 17.1962 14.6507 17.1961 14.6507 17.3172L9.80675 20.1025C7.50585 21.3135 4.72056 20.5869 3.38846 18.4071ZM2.17747 7.99258C2.66186 7.02378 3.50956 6.41828 4.59946 6.05498V11.7467C4.59946 11.9889 4.72056 12.2311 4.96276 12.4733L10.7755 15.8641L8.71685 17.075C8.71685 17.075 8.71685 17.075 8.59575 17.075L3.75176 14.2898C1.69307 12.8366 0.966469 10.0513 2.17747 7.99258ZM18.8892 11.8678L13.0764 8.47698L15.1351 7.26598C15.1351 7.26598 15.1351 7.26598 15.2562 7.26598L20.1002 10.0513C21.6745 10.899 22.5222 12.5944 22.4011 14.4109C22.28 16.1063 21.069 17.6805 19.4947 18.286V12.5944C19.3736 12.2311 19.1314 11.9889 18.8892 11.8678ZM20.9479 8.84027L20.8268 8.71918L15.9828 5.93388C15.7406 5.81279 15.3773 5.81279 15.1351 5.93388L9.32234 9.32467V7.02378C9.32234 7.02378 9.32234 7.02378 9.32234 6.90268L14.1663 4.11739C15.7406 3.26969 17.5571 3.26969 19.0103 4.35959C20.4635 5.32838 21.1901 7.02378 20.9479 8.84027ZM8.23245 12.9577L6.17375 11.7467V6.05498C6.17375 4.23849 7.14255 2.66419 8.83795 1.93759C10.4122 1.21099 12.3498 1.45319 13.6819 2.54309L13.5608 2.66419L8.71685 5.44948C8.47465 5.57058 8.35355 5.81278 8.35355 6.17608L8.23245 12.9577ZM9.32234 10.5357L11.9865 9.08247L14.6507 10.5357V13.5632L11.9865 15.0164L9.32234 13.5632V10.5357Z" fill="currentColor"/>
</svg>
