<svg viewBox="0 0 24 24" fill="none" xmlns="http://www.w3.org/2000/svg">
<g clip-path="url(#clip0_42_177)">
<path d="M21.9702 9.87554C22.2327 9.08729 22.3237 8.25215 22.2372 7.4259C22.1508 6.59966 21.8888 5.80143 21.4689 5.08463C20.8464 4.00042 19.8955 3.14202 18.7535 2.63328C17.6116 2.12454 16.3374 1.99177 15.115 2.25413C14.5637 1.63277 13.886 1.13635 13.1272 0.798105C12.3685 0.45986 11.5463 0.287583 10.7156 0.29281C9.46584 0.289793 8.2474 0.683736 7.23594 1.41785C6.22449 2.15196 5.47231 3.1883 5.08783 4.37746C4.27367 4.54412 3.50451 4.88278 2.83183 5.37077C2.15915 5.85876 1.59848 6.48481 1.18735 7.20704C0.559884 8.28826 0.292045 9.54077 0.42246 10.7841C0.552876 12.0273 1.07481 13.197 1.91298 14.1245C1.65054 14.9127 1.55949 15.7479 1.64595 16.5741C1.7324 17.4004 1.99435 18.1986 2.41427 18.9154C3.03683 19.9996 3.98769 20.8579 5.12969 21.3666C6.27167 21.8754 7.54578 22.0082 8.76814 21.7459C9.3195 22.3672 9.99723 22.8636 10.7559 23.2019C11.5147 23.5401 12.3369 23.7124 13.1676 23.7072C14.418 23.7105 15.6371 23.3164 16.6489 22.5818C17.6607 21.8472 18.413 20.8101 18.7972 19.6202C19.6113 19.4536 20.3805 19.115 21.0532 18.6269C21.7259 18.139 22.2865 17.5129 22.6977 16.7906C23.3244 15.7095 23.5916 14.4573 23.4608 13.2145C23.3301 11.9717 22.8081 10.8026 21.9702 9.87554ZM13.1694 22.1765C12.143 22.178 11.1488 21.8185 10.3606 21.161C10.3962 21.1417 10.4585 21.1075 10.4991 21.0826L15.1612 18.3896C15.2782 18.3231 15.3754 18.2265 15.4427 18.1099C15.5101 17.9933 15.5452 17.8609 15.5443 17.7264V11.1537L17.5149 12.2915C17.5252 12.2967 17.5341 12.3043 17.5408 12.3137C17.5475 12.3231 17.5517 12.3341 17.5532 12.3455V17.7886C17.5517 18.9512 17.0895 20.0658 16.2678 20.8883C15.4462 21.7108 14.332 22.174 13.1694 22.1765ZM3.74182 18.1501C3.22769 17.2617 3.0424 16.2209 3.21837 15.2097C3.25299 15.2305 3.31345 15.2674 3.35685 15.2923L8.01893 17.9853C8.13513 18.0532 8.2673 18.089 8.40188 18.089C8.53639 18.089 8.66857 18.0532 8.78476 17.9853L14.4767 14.6987V16.9744C14.4773 16.986 14.4751 16.9976 14.4702 17.0082C14.4653 17.0187 14.4578 17.0279 14.4485 17.0349L9.73563 19.7559C8.72757 20.3366 7.53033 20.4935 6.40666 20.1924C5.28297 19.8914 4.3246 19.1569 3.74182 18.1501ZM2.51536 7.97234C3.02726 7.08282 3.83578 6.40181 4.79933 6.04842C4.79933 6.08858 4.79702 6.1597 4.79702 6.20904V11.5949C4.7962 11.7295 4.83123 11.8617 4.89848 11.9783C4.96573 12.0948 5.06279 12.1912 5.17969 12.2578L10.8716 15.5439L8.90108 16.6817C8.89136 16.6881 8.88018 16.692 8.86859 16.6931C8.857 16.6941 8.84529 16.6923 8.83458 16.6877L4.12125 13.9643C3.11494 13.3815 2.38078 12.4235 2.07974 11.3003C1.77871 10.1771 1.93536 8.98028 2.51536 7.97234ZM18.7054 11.7399L13.0134 8.45334L14.984 7.31597C14.9937 7.30959 15.0049 7.30567 15.0165 7.30462C15.028 7.30356 15.0397 7.30544 15.0504 7.31L19.7638 10.0311C20.4859 10.4482 21.0742 11.0624 21.4599 11.8017C21.8455 12.5411 22.0125 13.375 21.9414 14.2059C21.8703 15.0368 21.5638 15.8302 21.0581 16.4932C20.5524 17.1563 19.8682 17.6615 19.0857 17.9497C19.0857 17.9091 19.0857 17.838 19.0857 17.7886V12.4027C19.0868 12.2685 19.0521 12.1363 18.9853 12.0198C18.9184 11.9033 18.8219 11.8067 18.7054 11.7399ZM20.6666 8.78799C20.632 8.76674 20.5716 8.73027 20.5282 8.7054L15.8661 6.01242C15.7499 5.94464 15.6177 5.90887 15.4832 5.90887C15.3486 5.90887 15.2165 5.94464 15.1003 6.01242L9.40835 9.29902V7.02335C9.40771 7.0117 9.40994 7.00011 9.41485 6.98957C9.41977 6.97904 9.4272 6.96985 9.43651 6.96288L14.1494 4.24406C14.8714 3.82774 15.6971 3.62563 16.5297 3.66137C17.3624 3.69712 18.1677 3.96924 18.8514 4.44591C19.535 4.92258 20.0688 5.58408 20.3903 6.35304C20.7118 7.12198 20.8077 7.96655 20.6666 8.78799ZM8.33702 12.844L6.36597 11.7062C6.35567 11.7011 6.34672 11.6935 6.34004 11.684C6.33337 11.6746 6.3291 11.6637 6.32769 11.6522V6.20904C6.32822 5.3754 6.56623 4.55912 7.0138 3.85579C7.46143 3.15246 8.10012 2.59119 8.85513 2.23765C9.61013 1.88412 10.4502 1.75297 11.277 1.85954C12.1039 1.96611 12.8833 2.30601 13.5239 2.83943C13.4884 2.85881 13.4265 2.89298 13.3854 2.9179L8.72336 5.61084C8.60634 5.67735 8.50923 5.7738 8.44186 5.89031C8.37454 6.0068 8.33948 6.13915 8.34024 6.27367L8.33702 12.844ZM9.40742 10.5361L11.9425 9.07189L14.4776 10.5351V13.4625L11.9425 14.9258L9.40742 13.4625V10.5361Z" fill="black"/>
</g>
<defs>
<clipPath id="clip0_42_177">
<rect width="24" height="24" fill="white"/>
</clipPath>
</defs>
</svg>
